# xmcd
#
# Track frame offsets:
#	150
#	13494
#	45283
#	81314
#	113332
#	143021
#	193223
#	207638
#	242356
#
# Disc length: 3672 seconds
#
# Revision: 0
# Processed by: cddbd v1.5.2PL0 Copyright (c) Steve Scherf et al.
# Submitted via: audiograbber 1.83.01
#
DISCID=750e5609
DTITLE=Grateful Dead - 93-08-26 Shoreline Amphitheatre, Mountain View CA
DYEAR=1900
DGENRE=
TTITLE0=Hell In A Bucket
TTITLE1=Bertha
TTITLE2=Wang Dang Doodle
TTITLE3=Candyman
TTITLE4=Just Like Tom Thumb's Blues
TTITLE5=Let It Grow
TTITLE6=Don't Ease Me In
TTITLE7=Crazy Fingers
TTITLE8=Saint Of Circumstance
EXTD=
EXTT0=
EXTT1=
EXTT2=
EXTT3=
EXTT4=
EXTT5=
EXTT6=
EXTT7=
EXTT8=
PLAYORDER=
